<?xml version="1.0" encoding="utf-8"?>
<!-- Generator: Adobe Illustrator 22.0.1, SVG Export Plug-In . SVG Version: 6.00 Build 0)  -->
<svg version="1.1" id="Calque_1" xmlns="http://www.w3.org/2000/svg" xmlns:xlink="http://www.w3.org/1999/xlink" x="0px" y="0px"
	 viewBox="0 0 960 560" style="enable-background:new 0 0 960 560;" xml:space="preserve">
<style type="text/css">
	.st0{fill:#FFBE2E;}
	.st1{fill:#FFEECC;}
	.st2{fill:#16110D;}
</style>
<g>
	<g id="T">
		<g id="XMLID_161_">
			<polygon id="XMLID_173_" class="st0" points="247.5,303.3 247.5,425.3 304.5,458.2 304.5,336.2 			"/>
			<polygon id="XMLID_172_" class="st0" points="568.4,415.9 568.4,537.9 367.4,421.9 367.4,299.9 			"/>
			<path id="XMLID_169_" class="st0" d="M638,375.6l-69.7,40.2l-200.9-116l-63,36.4l-57-32.9l195.5-112.8l57,32.9l-62.8,36.3
				L638,375.6z"/>
			<path id="XMLID_167_" class="st1" d="M638,393.1l-69.7,40.2l-200.9-116l-63,36.4l-57-32.9L442.9,208l57,32.9l-62.8,36.3
				L638,393.1z"/>
			<path id="XMLID_162_" class="st2" d="M641.6,377.7L641.6,377.7v-4.1l-3.6-2.1l0,0l-134.6-77.7v-68.4l0,0v-4.1l-3.6-2.1l0,0
				l-57-32.9L247.5,299.2l0,0l-3.6,2.1v4.1l0,0v122l57,32.9l0,0l3.6,2.1l3.6-2.1l0,0l59.4-34.3l197.4,113.9l0,0l3.6,2.1l3.6-2.1l0,0
				l69.7-40.2V377.7z M442.9,194.6l49.8,28.8L430,259.6l4.8,2.7l68.8,39.7l0,0l127.4,73.6l-62.5,36.1L371,297.8l0,0l-3.6-2.1
				l-3.6,2.1l0,0l-27.9,16.1l-31.5,18.2l-49.8-28.8L442.9,194.6z M251.1,423.3V309.5l49.8,28.8V452L251.1,423.3z M371,419.8V306.1
				l193.8,111.9v113.7L371,419.8z"/>
		</g>
	</g>
	<g id="N">
		<g id="XMLID_14_">
			<polygon id="XMLID_2701_" class="st0" points="561.2,325.2 504.4,294 504.4,108.6 561.2,139.8 			"/>
			<g id="XMLID_2680_">
				<polygon id="XMLID_2697_" class="st0" points="657.2,269.8 580.8,226.8 589.9,169.7 598.5,173 				"/>
				<path id="XMLID_2698_" class="st2" d="M657.2,272.1l-78.6-44.3l9.7-60.9l11.6,4.4l60.1,99.1L657.2,272.1z M583,225.7l68.4,38.6
					l-54.3-89.6l-5.6-2.2L583,225.7z"/>
			</g>
			<g id="XMLID_2682_">
				<path id="XMLID_2693_" class="st0" d="M618.6,42.6c0,0,56.8,28.7,56.8,31.2c0,2.5,0.1,94.5,0.2,95.9c0,1.4,1.4,32.1,1.4,32.1
					v32.1L619,135.6l-1.1-28.5L618.6,42.6z"/>
				<path id="XMLID_2694_" class="st2" d="M679,241.4l-62-105.7l-1.1-28.5l0.8-65.7l1.9-1.1l1,0.5c57.9,29.3,57.9,31.5,57.9,33
					c0,0.9,0.1,94.2,0.2,95.8c0,1.4,1.4,32,1.4,32L679,241.4z M621,135l53.9,91.5v-24.7c0,0-1.3-30.7-1.4-32
					c0-1.4-0.2-86.6-0.2-95.2c-4-3.4-33-18.6-52.8-28.6l-0.7,61.2L621,135z"/>
			</g>
			<polygon id="XMLID_2689_" class="st0" points="561.1,75.9 617.9,107.1 561.2,139.8 504.4,108.6 			"/>
			<polygon id="XMLID_2545_" class="st0" points="657.3,20.3 714.1,51.5 675.4,73.8 618.6,42.6 			"/>
			<polygon id="XMLID_2577_" class="st1" points="561.1,92.3 617.9,123.5 561.2,156.2 504.4,125 			"/>
			<polygon id="XMLID_2544_" class="st1" points="657.3,36.7 714.1,67.9 675.4,90.2 620.4,60 620.5,58 			"/>
			<path id="XMLID_2683_" class="st2" d="M657.3,18l-40.6,23.5l0,2.7L673.4,75v82.6c0,10,0.4,22.7,1.2,37.9l-55.3-90l-58.3-32
				l-58.7,33.9v187.8l58.8,32.3l40.4-23.3v-84.7c0-9.8-0.6-23.3-1.7-40.2l55.8,92l1.5,0.8l58.9-34V50.3L657.3,18z M622.7,42.6
				l34.6-20L710,51.6l-34.6,20L622.7,42.6z M559.2,321.8l-52.8-29V112l52.8,29V321.8z M508.5,108.5l52.6-30.4l52.7,28.9l-52.6,30.4
				L508.5,108.5z"/>
		</g>
	</g>
</g>
</svg>
